<?xml version="1.0" encoding="UTF-8"?>
<svg xmlns="http://www.w3.org/2000/svg" xmlns:xlink="http://www.w3.org/1999/xlink" width="2834.65" height="2834.65" viewBox="0 0 2834.65 2834.65">
<defs>
<clipPath id="clip-0">

</clipPath>
<clipPath id="clip-1">
<path clip-rule="nonzero" d="M 438 801 L 2397 801 L 2397 2034 L 438 2034 Z M 438 801 "/>
</clipPath>
<clipPath id="clip-2">
<path clip-rule="nonzero" d="M 2232.269531 1261.191406 L 2191.460938 1283.691406 L 2202.890625 1304.410156 L 2243.71875 1281.898438 C 2271.699219 1336.101562 2288.199219 1397.191406 2290 1461.960938 L 2243.441406 1461.960938 L 2243.441406 1485.621094 L 2290 1485.621094 C 2288.199219 1550.390625 2271.699219 1611.480469 2243.71875 1665.679688 L 2202.890625 1643.171875 L 2191.460938 1663.898438 L 2232.261719 1686.398438 C 2198.839844 1743.03125 2152.480469 1791.121094 2097.238281 1826.589844 L 2073.230469 1786.679688 L 2052.949219 1798.878906 L 2076.980469 1838.808594 C 2019.410156 1871.339844 1953.378906 1890.660156 1883.011719 1892.609375 L 1883.011719 1846.058594 L 1859.351562 1846.058594 L 1859.351562 1892.609375 C 1788.96875 1890.660156 1722.949219 1871.339844 1665.378906 1838.808594 L 1689.410156 1798.878906 L 1669.128906 1786.671875 L 1645.121094 1826.589844 C 1589.878906 1791.121094 1543.511719 1743.03125 1510.089844 1686.390625 L 1550.898438 1663.890625 L 1539.46875 1643.171875 L 1498.640625 1665.679688 C 1470.660156 1611.480469 1454.160156 1550.390625 1452.359375 1485.621094 L 1498.921875 1485.621094 L 1498.921875 1461.960938 L 1452.359375 1461.960938 C 1454.160156 1397.191406 1470.660156 1336.101562 1498.640625 1281.898438 L 1539.46875 1304.410156 L 1550.898438 1283.691406 L 1510.089844 1261.191406 C 1543.511719 1204.558594 1589.878906 1156.46875 1645.121094 1121 L 1669.128906 1160.910156 L 1689.398438 1148.710938 L 1665.378906 1108.78125 C 1722.949219 1076.25 1788.96875 1056.929688 1859.351562 1054.980469 L 1859.351562 1101.53125 L 1883.011719 1101.53125 L 1883.011719 1054.980469 C 1953.378906 1056.929688 2019.410156 1076.25 2076.980469 1108.78125 L 2052.949219 1148.710938 L 2073.230469 1160.910156 L 2097.238281 1121 C 2152.480469 1156.46875 2198.851562 1204.558594 2232.269531 1261.191406 Z M 1718.589844 1216.199219 L 1867.640625 1427.808594 C 1868.820312 1427.71875 1870.019531 1427.671875 1871.21875 1427.671875 C 1896.671875 1427.671875 1917.289062 1448.289062 1917.289062 1473.730469 C 1917.289062 1481.230469 1915.5 1488.300781 1912.320312 1494.558594 L 1953.160156 1555.558594 C 1914.789062 1535.089844 1896.78125 1545.75 1895.109375 1588.640625 L 1861.71875 1518.808594 C 1840.839844 1514.429688 1825.160156 1495.910156 1825.160156 1473.730469 C 1825.160156 1466.210938 1826.96875 1459.101562 1830.171875 1452.828125 Z M 1665.289062 1934.109375 C 1249.980469 1747.949219 1250.398438 1192.511719 1671.328125 1011.511719 C 1289.640625 1192.921875 1288.601562 1748.621094 1666.78125 1934.570312 Z M 1922.589844 2027.199219 C 2072.789062 2006.320312 2200.328125 1926.550781 2285.109375 1814.460938 C 2369.921875 1702.320312 2411.941406 1557.898438 2391.078125 1407.78125 C 2370.210938 1257.660156 2290.390625 1130.179688 2178.210938 1045.429688 C 2098.078125 984.898438 2001.441406 946.199219 1898 936.660156 L 1898 882.878906 L 1992.679688 882.878906 C 1997.519531 882.878906 2001.460938 878.929688 2001.460938 874.101562 L 2001.460938 810.140625 C 2001.460938 805.308594 1997.519531 801.359375 1992.679688 801.359375 L 1749.679688 801.359375 C 1744.839844 801.359375 1740.890625 805.308594 1740.890625 810.140625 L 1740.890625 874.101562 C 1740.890625 878.929688 1744.839844 882.878906 1749.679688 882.878906 L 1844.359375 882.878906 L 1844.359375 934.359375 C 1820.269531 934.5 1795.910156 936.230469 1771.398438 939.628906 C 1634.710938 958.628906 1465.289062 1055.640625 1344.511719 941.941406 C 1346.171875 1007.71875 1379.808594 1056.851562 1445.421875 1089.328125 C 1271.371094 1128.160156 1120.230469 946.191406 952.226562 1112.011719 C 1094.71875 1066.480469 1182.929688 1123.980469 1200.78125 1175.148438 C 1221.480469 1234.480469 1140.730469 1272.460938 1090.421875 1271.050781 C 1044.429688 1269.761719 995.546875 1243.871094 967.507812 1218.410156 C 909.234375 1165.488281 886.695312 1130.128906 742.480469 1117.5 C 813.351562 1169.449219 860.203125 1266.800781 813.070312 1319.179688 C 768.6875 1368.511719 626.230469 1219.691406 438.28125 1285.980469 C 592.820312 1309.960938 614.734375 1430.050781 715.210938 1497.699219 C 767.949219 1533.210938 835.859375 1552.648438 925.582031 1542.269531 C 913.96875 1561.609375 847.835938 1612.628906 696.554688 1589.890625 C 782.210938 1652.398438 866.609375 1665.691406 951.621094 1668.140625 C 985.269531 1669.121094 1076.03125 1663.210938 1143.601562 1671.898438 C 1261.820312 1687.089844 1247.410156 1786.640625 1183.171875 1806.988281 C 1103.441406 1832.230469 1028.160156 1839.238281 957.324219 1827.988281 C 1111.300781 1925.011719 1292.699219 1954.488281 1501.539062 1916.421875 C 1390.78125 1949.871094 1316.378906 1974.808594 1281.589844 2032.070312 C 1376.109375 1984.25 1469.210938 2001.390625 1538.230469 2003.859375 C 1679.191406 2008.898438 1769.671875 2048.089844 1922.589844 2027.199219 Z M 1922.589844 2027.199219 "/>
</clipPath>
<clipPath id="clip-3">
<path clip-rule="nonzero" d="M 2232.269531 1261.191406 L 2191.460938 1283.691406 L 2202.890625 1304.410156 L 2243.71875 1281.898438 C 2271.699219 1336.101562 2288.199219 1397.191406 2290 1461.960938 L 2243.441406 1461.960938 L 2243.441406 1485.621094 L 2290 1485.621094 C 2288.199219 1550.390625 2271.699219 1611.480469 2243.71875 1665.679688 L 2202.890625 1643.171875 L 2191.460938 1663.898438 L 2232.261719 1686.398438 C 2198.839844 1743.03125 2152.480469 1791.121094 2097.238281 1826.589844 L 2073.230469 1786.679688 L 2052.949219 1798.878906 L 2076.980469 1838.808594 C 2019.410156 1871.339844 1953.378906 1890.660156 1883.011719 1892.609375 L 1883.011719 1846.058594 L 1859.351562 1846.058594 L 1859.351562 1892.609375 C 1788.96875 1890.660156 1722.949219 1871.339844 1665.378906 1838.808594 L 1689.410156 1798.878906 L 1669.128906 1786.671875 L 1645.121094 1826.589844 C 1589.878906 1791.121094 1543.511719 1743.03125 1510.089844 1686.390625 L 1550.898438 1663.890625 L 1539.46875 1643.171875 L 1498.640625 1665.679688 C 1470.660156 1611.480469 1454.160156 1550.390625 1452.359375 1485.621094 L 1498.921875 1485.621094 L 1498.921875 1461.960938 L 1452.359375 1461.960938 C 1454.160156 1397.191406 1470.660156 1336.101562 1498.640625 1281.898438 L 1539.46875 1304.410156 L 1550.898438 1283.691406 L 1510.089844 1261.191406 C 1543.511719 1204.558594 1589.878906 1156.46875 1645.121094 1121 L 1669.128906 1160.910156 L 1689.398438 1148.710938 L 1665.378906 1108.78125 C 1722.949219 1076.25 1788.96875 1056.929688 1859.351562 1054.980469 L 1859.351562 1101.53125 L 1883.011719 1101.53125 L 1883.011719 1054.980469 C 1953.378906 1056.929688 2019.410156 1076.25 2076.980469 1108.78125 L 2052.949219 1148.710938 L 2073.230469 1160.910156 L 2097.238281 1121 C 2152.480469 1156.46875 2198.851562 1204.558594 2232.269531 1261.191406 Z M 1718.589844 1216.199219 L 1867.640625 1427.808594 C 1868.820312 1427.71875 1870.019531 1427.671875 1871.21875 1427.671875 C 1896.671875 1427.671875 1917.289062 1448.289062 1917.289062 1473.730469 C 1917.289062 1481.230469 1915.5 1488.300781 1912.320312 1494.558594 L 1953.160156 1555.558594 C 1914.789062 1535.089844 1896.78125 1545.75 1895.109375 1588.640625 L 1861.71875 1518.808594 C 1840.839844 1514.429688 1825.160156 1495.910156 1825.160156 1473.730469 C 1825.160156 1466.210938 1826.96875 1459.101562 1830.171875 1452.828125 Z M 1665.289062 1934.109375 C 1249.980469 1747.949219 1250.398438 1192.511719 1671.328125 1011.511719 C 1289.640625 1192.921875 1288.601562 1748.621094 1666.78125 1934.570312 Z M 1922.589844 2027.199219 C 2072.789062 2006.320312 2200.328125 1926.550781 2285.109375 1814.460938 C 2369.921875 1702.320312 2411.941406 1557.898438 2391.078125 1407.78125 C 2370.210938 1257.660156 2290.390625 1130.179688 2178.210938 1045.429688 C 2098.078125 984.898438 2001.441406 946.199219 1898 936.660156 L 1898 882.878906 L 1992.679688 882.878906 C 1997.519531 882.878906 2001.460938 878.929688 2001.460938 874.101562 L 2001.460938 810.140625 C 2001.460938 805.308594 1997.519531 801.359375 1992.679688 801.359375 L 1749.679688 801.359375 C 1744.839844 801.359375 1740.890625 805.308594 1740.890625 810.140625 L 1740.890625 874.101562 C 1740.890625 878.929688 1744.839844 882.878906 1749.679688 882.878906 L 1844.359375 882.878906 L 1844.359375 934.359375 C 1820.269531 934.5 1795.910156 936.230469 1771.398438 939.628906 C 1634.710938 958.628906 1465.289062 1055.640625 1344.511719 941.941406 C 1346.171875 1007.71875 1379.808594 1056.851562 1445.421875 1089.328125 C 1271.371094 1128.160156 1120.230469 946.191406 952.226562 1112.011719 C 1094.71875 1066.480469 1182.929688 1123.980469 1200.78125 1175.148438 C 1221.480469 1234.480469 1140.730469 1272.460938 1090.421875 1271.050781 C 1044.429688 1269.761719 995.546875 1243.871094 967.507812 1218.410156 C 909.234375 1165.488281 886.695312 1130.128906 742.480469 1117.5 C 813.351562 1169.449219 860.203125 1266.800781 813.070312 1319.179688 C 768.6875 1368.511719 626.230469 1219.691406 438.28125 1285.980469 C 592.820312 1309.960938 614.734375 1430.050781 715.210938 1497.699219 C 767.949219 1533.210938 835.859375 1552.648438 925.582031 1542.269531 C 913.96875 1561.609375 847.835938 1612.628906 696.554688 1589.890625 C 782.210938 1652.398438 866.609375 1665.691406 951.621094 1668.140625 C 985.269531 1669.121094 1076.03125 1663.210938 1143.601562 1671.898438 C 1261.820312 1687.089844 1247.410156 1786.640625 1183.171875 1806.988281 C 1103.441406 1832.230469 1028.160156 1839.238281 957.324219 1827.988281 C 1111.300781 1925.011719 1292.699219 1954.488281 1501.539062 1916.421875 C 1390.78125 1949.871094 1316.378906 1974.808594 1281.589844 2032.070312 C 1376.109375 1984.25 1469.210938 2001.390625 1538.230469 2003.859375 C 1679.191406 2008.898438 1769.671875 2048.089844 1922.589844 2027.199219 "/>
</clipPath>
<linearGradient id="linear-pattern-0" gradientUnits="userSpaceOnUse" x1="-0.303941" y1="0" x2="1.3787" y2="0" gradientTransform="matrix(-1181.81, -14.4065, -14.4065, 1181.81, 2060.32, 1421.87)">
<stop offset="0" stop-color="rgb(86.273193%, 0%, 0%)" stop-opacity="1"/>
<stop offset="0.125" stop-color="rgb(86.273193%, 0%, 0%)" stop-opacity="1"/>
<stop offset="0.15625" stop-color="rgb(86.273193%, 0%, 0%)" stop-opacity="1"/>
<stop offset="0.171875" stop-color="rgb(86.273193%, 0%, 0%)" stop-opacity="1"/>
<stop offset="0.179688" stop-color="rgb(86.273193%, 0%, 0%)" stop-opacity="1"/>
<stop offset="0.183594" stop-color="rgb(86.352539%, 0.393677%, 0%)" stop-opacity="1"/>
<stop offset="0.1875" stop-color="rgb(86.431885%, 0.787354%, 0%)" stop-opacity="1"/>
<stop offset="0.191406" stop-color="rgb(86.521912%, 1.235962%, 0%)" stop-opacity="1"/>
<stop offset="0.195312" stop-color="rgb(86.613464%, 1.68457%, 0%)" stop-opacity="1"/>
<stop offset="0.199219" stop-color="rgb(86.703491%, 2.133179%, 0%)" stop-opacity="1"/>
<stop offset="0.203125" stop-color="rgb(86.793518%, 2.581787%, 0%)" stop-opacity="1"/>
<stop offset="0.207031" stop-color="rgb(86.883545%, 3.030396%, 0%)" stop-opacity="1"/>
<stop offset="0.210937" stop-color="rgb(86.973572%, 3.479004%, 0%)" stop-opacity="1"/>
<stop offset="0.214844" stop-color="rgb(87.063599%, 3.927612%, 0%)" stop-opacity="1"/>
<stop offset="0.21875" stop-color="rgb(87.153625%, 4.376221%, 0%)" stop-opacity="1"/>
<stop offset="0.222656" stop-color="rgb(87.243652%, 4.823303%, 0%)" stop-opacity="1"/>
<stop offset="0.226562" stop-color="rgb(87.335205%, 5.271912%, 0%)" stop-opacity="1"/>
<stop offset="0.230469" stop-color="rgb(87.425232%, 5.72052%, 0%)" stop-opacity="1"/>
<stop offset="0.234375" stop-color="rgb(87.515259%, 6.169128%, 0%)" stop-opacity="1"/>
<stop offset="0.238281" stop-color="rgb(87.605286%, 6.617737%, 0%)" stop-opacity="1"/>
<stop offset="0.242188" stop-color="rgb(87.695312%, 7.066345%, 0%)" stop-opacity="1"/>
<stop offset="0.246094" stop-color="rgb(87.785339%, 7.514954%, 0%)" stop-opacity="1"/>
<stop offset="0.25" stop-color="rgb(87.875366%, 7.963562%, 0%)" stop-opacity="1"/>
<stop offset="0.253906" stop-color="rgb(87.965393%, 8.41217%, 0%)" stop-opacity="1"/>
<stop offset="0.257812" stop-color="rgb(88.056946%, 8.860779%, 0%)" stop-opacity="1"/>
<stop offset="0.261719" stop-color="rgb(88.146973%, 9.309387%, 0%)" stop-opacity="1"/>
<stop offset="0.265625" stop-color="rgb(88.237%, 9.757996%, 0%)" stop-opacity="1"/>
<stop offset="0.269531" stop-color="rgb(88.327026%, 10.206604%, 0%)" stop-opacity="1"/>
<stop offset="0.273438" stop-color="rgb(88.417053%, 10.655212%, 0%)" stop-opacity="1"/>
<stop offset="0.277344" stop-color="rgb(88.50708%, 11.102295%, 0%)" stop-opacity="1"/>
<stop offset="0.28125" stop-color="rgb(88.597107%, 11.550903%, 0%)" stop-opacity="1"/>
<stop offset="0.285156" stop-color="rgb(88.687134%, 11.999512%, 0%)" stop-opacity="1"/>
<stop offset="0.289062" stop-color="rgb(88.777161%, 12.44812%, 0%)" stop-opacity="1"/>
<stop offset="0.292969" stop-color="rgb(88.867188%, 12.896729%, 0%)" stop-opacity="1"/>
<stop offset="0.296875" stop-color="rgb(88.95874%, 13.345337%, 0%)" stop-opacity="1"/>
<stop offset="0.300781" stop-color="rgb(89.048767%, 13.793945%, 0%)" stop-opacity="1"/>
<stop offset="0.304688" stop-color="rgb(89.138794%, 14.242554%, 0%)" stop-opacity="1"/>
<stop offset="0.308594" stop-color="rgb(89.228821%, 14.691162%, 0%)" stop-opacity="1"/>
<stop offset="0.3125" stop-color="rgb(89.318848%, 15.139771%, 0%)" stop-opacity="1"/>
<stop offset="0.316406" stop-color="rgb(89.408875%, 15.588379%, 0%)" stop-opacity="1"/>
<stop offset="0.320312" stop-color="rgb(89.498901%, 16.036987%, 0%)" stop-opacity="1"/>
<stop offset="0.324219" stop-color="rgb(89.588928%, 16.485596%, 0%)" stop-opacity="1"/>
<stop offset="0.328125" stop-color="rgb(89.680481%, 16.934204%, 0%)" stop-opacity="1"/>
<stop offset="0.332031" stop-color="rgb(89.770508%, 17.381287%, 0%)" stop-opacity="1"/>
<stop offset="0.335938" stop-color="rgb(89.860535%, 17.829895%, 0%)" stop-opacity="1"/>
<stop offset="0.339844" stop-color="rgb(89.950562%, 18.278503%, 0%)" stop-opacity="1"/>
<stop offset="0.34375" stop-color="rgb(90.040588%, 18.727112%, 0%)" stop-opacity="1"/>
<stop offset="0.347656" stop-color="rgb(90.130615%, 19.17572%, 0%)" stop-opacity="1"/>
<stop offset="0.351562" stop-color="rgb(90.220642%, 19.624329%, 0%)" stop-opacity="1"/>
<stop offset="0.355469" stop-color="rgb(90.310669%, 20.072937%, 0%)" stop-opacity="1"/>
<stop offset="0.359375" stop-color="rgb(90.402222%, 20.521545%, 0%)" stop-opacity="1"/>
<stop offset="0.363281" stop-color="rgb(90.492249%, 20.970154%, 0%)" stop-opacity="1"/>
<stop offset="0.367188" stop-color="rgb(90.582275%, 21.418762%, 0%)" stop-opacity="1"/>
<stop offset="0.371094" stop-color="rgb(90.672302%, 21.867371%, 0%)" stop-opacity="1"/>
<stop offset="0.375" stop-color="rgb(90.762329%, 22.315979%, 0%)" stop-opacity="1"/>
<stop offset="0.378906" stop-color="rgb(90.852356%, 22.764587%, 0%)" stop-opacity="1"/>
<stop offset="0.382812" stop-color="rgb(90.942383%, 23.213196%, 0%)" stop-opacity="1"/>
<stop offset="0.386719" stop-color="rgb(91.03241%, 23.660278%, 0%)" stop-opacity="1"/>
<stop offset="0.390625" stop-color="rgb(91.123962%, 24.108887%, 0%)" stop-opacity="1"/>
<stop offset="0.394531" stop-color="rgb(91.213989%, 24.557495%, 0%)" stop-opacity="1"/>
<stop offset="0.398438" stop-color="rgb(91.304016%, 25.006104%, 0%)" stop-opacity="1"/>
<stop offset="0.402344" stop-color="rgb(91.394043%, 25.454712%, 0%)" stop-opacity="1"/>
<stop offset="0.40625" stop-color="rgb(91.48407%, 25.90332%, 0%)" stop-opacity="1"/>
<stop offset="0.410156" stop-color="rgb(91.574097%, 26.351929%, 0%)" stop-opacity="1"/>
<stop offset="0.414062" stop-color="rgb(91.664124%, 26.800537%, 0%)" stop-opacity="1"/>
<stop offset="0.417969" stop-color="rgb(91.75415%, 27.249146%, 0%)" stop-opacity="1"/>
<stop offset="0.421875" stop-color="rgb(91.845703%, 27.697754%, 0%)" stop-opacity="1"/>
<stop offset="0.425781" stop-color="rgb(91.93573%, 28.146362%, 0%)" stop-opacity="1"/>
<stop offset="0.429688" stop-color="rgb(92.025757%, 28.594971%, 0%)" stop-opacity="1"/>
<stop offset="0.433594" stop-color="rgb(92.115784%, 29.043579%, 0%)" stop-opacity="1"/>
<stop offset="0.4375" stop-color="rgb(92.205811%, 29.492188%, 0%)" stop-opacity="1"/>
<stop offset="0.441406" stop-color="rgb(92.295837%, 29.93927%, 0%)" stop-opacity="1"/>
<stop offset="0.445312" stop-color="rgb(92.385864%, 30.387878%, 0%)" stop-opacity="1"/>
<stop offset="0.449219" stop-color="rgb(92.475891%, 30.836487%, 0%)" stop-opacity="1"/>
<stop offset="0.453125" stop-color="rgb(92.567444%, 31.285095%, 0%)" stop-opacity="1"/>
<stop offset="0.457031" stop-color="rgb(92.657471%, 31.733704%, 0%)" stop-opacity="1"/>
<stop offset="0.460938" stop-color="rgb(92.747498%, 32.182312%, 0%)" stop-opacity="1"/>
<stop offset="0.464844" stop-color="rgb(92.837524%, 32.63092%, 0%)" stop-opacity="1"/>
<stop offset="0.46875" stop-color="rgb(92.927551%, 33.079529%, 0%)" stop-opacity="1"/>
<stop offset="0.472656" stop-color="rgb(93.017578%, 33.528137%, 0%)" stop-opacity="1"/>
<stop offset="0.476563" stop-color="rgb(93.107605%, 33.976746%, 0%)" stop-opacity="1"/>
<stop offset="0.480469" stop-color="rgb(93.197632%, 34.425354%, 0%)" stop-opacity="1"/>
<stop offset="0.484375" stop-color="rgb(93.289185%, 34.873962%, 0%)" stop-opacity="1"/>
<stop offset="0.488281" stop-color="rgb(93.379211%, 35.322571%, 0%)" stop-opacity="1"/>
<stop offset="0.492188" stop-color="rgb(93.469238%, 35.771179%, 0%)" stop-opacity="1"/>
<stop offset="0.496094" stop-color="rgb(93.559265%, 36.218262%, 0%)" stop-opacity="1"/>
<stop offset="0.5" stop-color="rgb(93.649292%, 36.66687%, 0%)" stop-opacity="1"/>
<stop offset="0.503906" stop-color="rgb(93.739319%, 37.115479%, 0%)" stop-opacity="1"/>
<stop offset="0.507812" stop-color="rgb(93.829346%, 37.564087%, 0%)" stop-opacity="1"/>
<stop offset="0.511719" stop-color="rgb(93.919373%, 38.012695%, 0%)" stop-opacity="1"/>
<stop offset="0.515625" stop-color="rgb(94.010925%, 38.461304%, 0%)" stop-opacity="1"/>
<stop offset="0.519531" stop-color="rgb(94.100952%, 38.909912%, 0%)" stop-opacity="1"/>
<stop offset="0.523438" stop-color="rgb(94.190979%, 39.358521%, 0%)" stop-opacity="1"/>
<stop offset="0.527344" stop-color="rgb(94.281006%, 39.807129%, 0%)" stop-opacity="1"/>
<stop offset="0.53125" stop-color="rgb(94.371033%, 40.255737%, 0%)" stop-opacity="1"/>
<stop offset="0.535156" stop-color="rgb(94.46106%, 40.704346%, 0%)" stop-opacity="1"/>
<stop offset="0.539062" stop-color="rgb(94.551086%, 41.152954%, 0%)" stop-opacity="1"/>
<stop offset="0.542969" stop-color="rgb(94.641113%, 41.601562%, 0%)" stop-opacity="1"/>
<stop offset="0.546875" stop-color="rgb(94.732666%, 42.050171%, 0%)" stop-opacity="1"/>
<stop offset="0.550781" stop-color="rgb(94.822693%, 42.497253%, 0%)" stop-opacity="1"/>
<stop offset="0.554687" stop-color="rgb(94.91272%, 42.945862%, 0%)" stop-opacity="1"/>
<stop offset="0.558594" stop-color="rgb(95.002747%, 43.39447%, 0%)" stop-opacity="1"/>
<stop offset="0.5625" stop-color="rgb(95.092773%, 43.843079%, 0%)" stop-opacity="1"/>
<stop offset="0.566406" stop-color="rgb(95.1828%, 44.291687%, 0%)" stop-opacity="1"/>
<stop offset="0.570312" stop-color="rgb(95.272827%, 44.740295%, 0%)" stop-opacity="1"/>
<stop offset="0.574219" stop-color="rgb(95.362854%, 45.188904%, 0%)" stop-opacity="1"/>
<stop offset="0.578125" stop-color="rgb(95.454407%, 45.637512%, 0%)" stop-opacity="1"/>
<stop offset="0.582031" stop-color="rgb(95.544434%, 46.086121%, 0%)" stop-opacity="1"/>
<stop offset="0.585938" stop-color="rgb(95.63446%, 46.534729%, 0%)" stop-opacity="1"/>
<stop offset="0.589844" stop-color="rgb(95.724487%, 46.983337%, 0%)" stop-opacity="1"/>
<stop offset="0.59375" stop-color="rgb(95.814514%, 47.431946%, 0%)" stop-opacity="1"/>
<stop offset="0.597656" stop-color="rgb(95.904541%, 47.880554%, 0%)" stop-opacity="1"/>
<stop offset="0.601562" stop-color="rgb(95.994568%, 48.329163%, 0%)" stop-opacity="1"/>
<stop offset="0.605469" stop-color="rgb(96.084595%, 48.776245%, 0%)" stop-opacity="1"/>
<stop offset="0.609375" stop-color="rgb(96.176147%, 49.224854%, 0%)" stop-opacity="1"/>
<stop offset="0.613281" stop-color="rgb(96.266174%, 49.673462%, 0%)" stop-opacity="1"/>
<stop offset="0.617188" stop-color="rgb(96.356201%, 50.12207%, 0%)" stop-opacity="1"/>
<stop offset="0.621094" stop-color="rgb(96.446228%, 50.570679%, 0%)" stop-opacity="1"/>
<stop offset="0.625" stop-color="rgb(96.536255%, 51.019287%, 0%)" stop-opacity="1"/>
<stop offset="0.628906" stop-color="rgb(96.626282%, 51.467896%, 0%)" stop-opacity="1"/>
<stop offset="0.632812" stop-color="rgb(96.716309%, 51.916504%, 0%)" stop-opacity="1"/>
<stop offset="0.636719" stop-color="rgb(96.806335%, 52.365112%, 0%)" stop-opacity="1"/>
<stop offset="0.640625" stop-color="rgb(96.897888%, 52.813721%, 0%)" stop-opacity="1"/>
<stop offset="0.644531" stop-color="rgb(96.987915%, 53.262329%, 0%)" stop-opacity="1"/>
<stop offset="0.648437" stop-color="rgb(97.077942%, 53.710938%, 0%)" stop-opacity="1"/>
<stop offset="0.652344" stop-color="rgb(97.167969%, 54.159546%, 0%)" stop-opacity="1"/>
<stop offset="0.65625" stop-color="rgb(97.257996%, 54.608154%, 0%)" stop-opacity="1"/>
<stop offset="0.660156" stop-color="rgb(97.348022%, 55.055237%, 0%)" stop-opacity="1"/>
<stop offset="0.664062" stop-color="rgb(97.438049%, 55.503845%, 0%)" stop-opacity="1"/>
<stop offset="0.667969" stop-color="rgb(97.528076%, 55.952454%, 0%)" stop-opacity="1"/>
<stop offset="0.671875" stop-color="rgb(97.619629%, 56.401062%, 0%)" stop-opacity="1"/>
<stop offset="0.675781" stop-color="rgb(97.709656%, 56.84967%, 0%)" stop-opacity="1"/>
<stop offset="0.679688" stop-color="rgb(97.799683%, 57.298279%, 0%)" stop-opacity="1"/>
<stop offset="0.683594" stop-color="rgb(97.889709%, 57.746887%, 0%)" stop-opacity="1"/>
<stop offset="0.6875" stop-color="rgb(97.979736%, 58.195496%, 0%)" stop-opacity="1"/>
<stop offset="0.691406" stop-color="rgb(98.069763%, 58.644104%, 0%)" stop-opacity="1"/>
<stop offset="0.695312" stop-color="rgb(98.15979%, 59.092712%, 0%)" stop-opacity="1"/>
<stop offset="0.699219" stop-color="rgb(98.249817%, 59.541321%, 0%)" stop-opacity="1"/>
<stop offset="0.703125" stop-color="rgb(98.34137%, 59.989929%, 0%)" stop-opacity="1"/>
<stop offset="0.707031" stop-color="rgb(98.431396%, 60.438538%, 0%)" stop-opacity="1"/>
<stop offset="0.710938" stop-color="rgb(98.521423%, 60.887146%, 0%)" stop-opacity="1"/>
<stop offset="0.714844" stop-color="rgb(98.61145%, 61.334229%, 0%)" stop-opacity="1"/>
<stop offset="0.71875" stop-color="rgb(98.701477%, 61.782837%, 0%)" stop-opacity="1"/>
<stop offset="0.722656" stop-color="rgb(98.791504%, 62.231445%, 0%)" stop-opacity="1"/>
<stop offset="0.726562" stop-color="rgb(98.881531%, 62.680054%, 0%)" stop-opacity="1"/>
<stop offset="0.730469" stop-color="rgb(98.971558%, 63.128662%, 0%)" stop-opacity="1"/>
<stop offset="0.734375" stop-color="rgb(99.06311%, 63.577271%, 0%)" stop-opacity="1"/>
<stop offset="0.738281" stop-color="rgb(99.153137%, 64.025879%, 0%)" stop-opacity="1"/>
<stop offset="0.742187" stop-color="rgb(99.243164%, 64.474487%, 0%)" stop-opacity="1"/>
<stop offset="0.746094" stop-color="rgb(99.333191%, 64.923096%, 0%)" stop-opacity="1"/>
<stop offset="0.75" stop-color="rgb(99.423218%, 65.371704%, 0%)" stop-opacity="1"/>
<stop offset="0.753906" stop-color="rgb(99.513245%, 65.820312%, 0%)" stop-opacity="1"/>
<stop offset="0.757813" stop-color="rgb(99.603271%, 66.268921%, 0%)" stop-opacity="1"/>
<stop offset="0.761719" stop-color="rgb(99.693298%, 66.717529%, 0%)" stop-opacity="1"/>
<stop offset="0.765625" stop-color="rgb(99.784851%, 67.166138%, 0%)" stop-opacity="1"/>
<stop offset="0.769531" stop-color="rgb(99.874878%, 67.61322%, 0%)" stop-opacity="1"/>
<stop offset="0.773438" stop-color="rgb(99.964905%, 68.061829%, 0%)" stop-opacity="1"/>
<stop offset="0.78125" stop-color="rgb(99.981689%, 68.147278%, 0%)" stop-opacity="1"/>
<stop offset="0.8125" stop-color="rgb(100%, 68.234253%, 0%)" stop-opacity="1"/>
<stop offset="0.875" stop-color="rgb(100%, 68.234253%, 0%)" stop-opacity="1"/>
<stop offset="1" stop-color="rgb(100%, 68.234253%, 0%)" stop-opacity="1"/>
</linearGradient>
</defs>
<g clip-path="url(#clip-0)">
<path fill-rule="evenodd" fill="rgb(100%, 100%, 100%)" fill-opacity="1" d="M 0 0 L 2834.648438 0 L 2834.648438 2834.648438 L 0 2834.648438 L 0 0 "/>
</g>
<g clip-path="url(#clip-1)">
<g clip-path="url(#clip-2)">
<g clip-path="url(#clip-3)">
<path fill-rule="nonzero" fill="url(#linear-pattern-0)" d="M 2427.136719 801.546875 L 2411.648438 2072.144531 L 423.085938 2047.90625 L 438.574219 777.304688 Z M 2427.136719 801.546875 "/>
</g>
</g>
</g>
</svg>
